<svg id="Layer_1" data-name="Layer 1" xmlns="http://www.w3.org/2000/svg" viewBox="0 0 168 168"><defs><style>.cls-1{fill:#2d4356;}.cls-2{fill:#0bceb2;}</style></defs><title>naturopathy natural-treatment ayurvedic-treatment leaf medicine</title><path class="cls-1" d="M99.42,83.19c49.28-5.84,39.86-54,39.86-54C86.38,35.75,99.42,83.19,99.42,83.19Zm6.77-34.68c6.13-9.15,16.69-14.89,31.4-17.07.65,5.39,1.64,21.38-7.42,33.8-6,8.2-15.26,13.39-27.62,15.47l20.26-28.95a1,1,0,1,0-1.64-1.15L100.76,79.78C99.77,73.87,98.54,59.92,106.19,48.5Z"/><path class="cls-1" d="M90.79,73.19s15.14-29.15-20.38-40C70.41,33.19,57.66,63.26,90.79,73.19ZM71.65,35.69C81.24,39,87.52,44,90.32,50.61c3,7.19,1.28,14.74-.12,18.74L82.89,54.74a1,1,0,1,0-1.79.89l7.33,14.65c-7.91-2.92-13.34-7.42-16.16-13.39C68.35,48.58,70.48,39.42,71.65,35.69Z"/><path class="cls-1" d="M130.43,110.1a1,1,0,0,0-1.33.47c-.08.18-8.71,17.7-33.25,21.44a1,1,0,0,0,.15,2h.15c25.64-3.9,34.39-21.8,34.75-22.56A1,1,0,0,0,130.43,110.1Z"/><path class="cls-1" d="M103.06,22s-18.75,8.25-7.42,26C95.64,48,115.12,41.13,103.06,22ZM94.5,33.76c1.41-4.69,5.54-7.73,7.82-9.09,2.63,4.74,3.33,9,2.08,12.59-1.54,4.45-5.71,7.07-8,8.2C94.09,41.22,93.43,37.29,94.5,33.76Z"/><path class="cls-1" d="M157,13.5a2,2,0,1,0-2,2A2,2,0,0,0,157,13.5Zm-2,1a1,1,0,1,1,1-1A1,1,0,0,1,155,14.5Z"/><path class="cls-1" d="M75,20.5a2,2,0,1,0-2-2A2,2,0,0,0,75,20.5Zm0-3a1,1,0,1,1-1,1A1,1,0,0,1,75,17.5Z"/><path class="cls-1" d="M115,16.5a3,3,0,1,0-3-3A3,3,0,0,0,115,16.5Zm0-4.5a1.5,1.5,0,1,1-1.5,1.5A1.5,1.5,0,0,1,115,12Z"/><path class="cls-1" d="M45,35.5a2,2,0,1,0-2-2A2,2,0,0,0,45,35.5Zm0-3a1,1,0,1,1-1,1A1,1,0,0,1,45,32.5Z"/><path class="cls-1" d="M148,48.5a2,2,0,1,0-2-2A2,2,0,0,0,148,48.5Zm0-3a1,1,0,1,1-1,1A1,1,0,0,1,148,45.5Z"/><path class="cls-1" d="M152,144H100c26.21-6.66,46.16-29.28,47.93-56.94a2.84,2.84,0,0,0-.77-2.15A2.94,2.94,0,0,0,145,84H63.16l-15-23a10,10,0,1,0-10.53,5.85h0L45.67,84H23a2.94,2.94,0,0,0-2.14.92,2.84,2.84,0,0,0-.77,2.15C21.87,114.72,41.82,137.34,68,144H16a1,1,0,0,0,0,2H152a1,1,0,0,0,0-2ZM31,57a8,8,0,1,1,8,8A8,8,0,0,1,31,57Zm8.85,10A10,10,0,0,0,47,63h0L60.77,84H47.88ZM22.8,93a60,60,0,0,1-.71-6.1.85.85,0,0,1,.23-.65A.91.91,0,0,1,23,86H145a.91.91,0,0,1,.68.29.85.85,0,0,1,.23.65A60,60,0,0,1,145.2,93a1,1,0,0,0-.2,0H23A1,1,0,0,0,22.8,93Zm.37,2H144.82c-5.69,28-31,49-60.82,49S28.86,123,23.18,95Z"/><path class="cls-1" d="M11,144H6a1,1,0,0,0,0,2h5a1,1,0,0,0,0-2Z"/><circle class="cls-1" cx="1" cy="145" r="1"/><path class="cls-1" d="M162,144h-5a1,1,0,0,0,0,2h5a1,1,0,0,0,0-2Z"/><circle class="cls-1" cx="167" cy="145" r="1"/><path class="cls-2" d="M119,150H109a1,1,0,0,0,0,2h10a1,1,0,0,0,0-2Z"/><circle class="cls-2" cx="125" cy="46.19" r="1"/><circle class="cls-2" cx="79" cy="50.19" r="1"/><circle class="cls-2" cx="91" cy="134" r="1"/><polygon class="cls-2" points="10.58 68.51 12.07 66.56 11.13 66.02 10.18 68.21 10.14 68.21 9.18 66.04 8.22 66.59 9.69 68.5 9.69 68.53 7.39 68.23 7.39 69.29 9.71 69 9.71 69.03 8.22 70.94 9.11 71.5 10.13 69.29 10.16 69.29 11.1 71.48 12.09 70.92 10.58 69.04 10.58 69.01 12.95 69.29 12.95 68.23 10.58 68.54 10.58 68.51"/><polygon class="cls-2" points="52.78 5.57 51.92 6.67 52.43 6.99 53.02 5.72 53.04 5.72 53.58 6.98 54.15 6.66 53.28 5.58 53.28 5.56 54.64 5.72 54.64 5.11 53.28 5.29 53.28 5.27 54.14 4.14 53.6 3.84 53.05 5.1 53.03 5.1 52.47 3.85 51.92 4.16 52.77 5.26 52.77 5.28 51.44 5.11 51.44 5.72 52.78 5.55 52.78 5.57"/><polygon class="cls-2" points="14.68 16.45 16.14 14.53 15.22 14.01 14.29 16.15 14.25 16.15 13.3 14.02 12.37 14.56 13.81 16.43 13.81 16.46 11.55 16.17 11.55 17.21 13.82 16.92 13.82 16.95 12.37 18.82 13.24 19.38 14.24 17.21 14.27 17.21 15.19 19.36 16.16 18.81 14.68 16.97 14.68 16.94 17 17.21 17 16.17 14.68 16.48 14.68 16.45"/><polygon class="cls-2" points="165.44 69.75 165.44 68.85 163.44 69.11 163.44 69.09 164.7 67.43 163.91 66.98 163.1 68.83 163.07 68.83 162.25 66.99 161.44 67.46 162.69 69.07 162.69 69.1 160.74 68.85 160.74 69.75 162.7 69.5 162.7 69.52 161.44 71.14 162.2 71.61 163.06 69.75 163.09 69.75 163.88 71.6 164.71 71.13 163.44 69.54 163.44 69.51 165.44 69.75"/><path class="cls-2" d="M105,150H63a1,1,0,0,0,0,2H81v2H71a1,1,0,0,0,0,2H98a1,1,0,0,0,0-2H87v-2h18a1,1,0,0,0,0-2Z"/><path class="cls-2" d="M59,150H49a1,1,0,0,0,0,2H59a1,1,0,0,0,0-2Z"/></svg>